<?xml version="1.0" encoding="UTF-8" standalone="no"?>
<!-- Created with Inkscape (http://www.inkscape.org/) -->

<svg
   xmlns:dc="http://purl.org/dc/elements/1.1/"
   xmlns:cc="http://creativecommons.org/ns#"
   xmlns:rdf="http://www.w3.org/1999/02/22-rdf-syntax-ns#"
   xmlns:svg="http://www.w3.org/2000/svg"
   xmlns="http://www.w3.org/2000/svg"
   xmlns:sodipodi="http://sodipodi.sourceforge.net/DTD/sodipodi-0.dtd"
   xmlns:inkscape="http://www.inkscape.org/namespaces/inkscape"
   width="120"
   height="80"
   viewBox="0 0 31.75 21.166666"
   version="1.1"
   id="svg874"
   inkscape:version="0.92.1 r15371"
   sodipodi:docname="mozilla-logo-brasil.svg">
  <defs
     id="defs868" />
  <sodipodi:namedview
     id="base"
     pagecolor="#ffffff"
     bordercolor="#666666"
     borderopacity="1.0"
     inkscape:pageopacity="0.0"
     inkscape:pageshadow="2"
     inkscape:zoom="2.8"
     inkscape:cx="40.234709"
     inkscape:cy="3.7836391"
     inkscape:document-units="mm"
     inkscape:current-layer="layer1"
     showgrid="false"
     units="px"
     inkscape:window-width="1366"
     inkscape:window-height="705"
     inkscape:window-x="-8"
     inkscape:window-y="-8"
     inkscape:window-maximized="1" />
  <metadata
     id="metadata871">
    <rdf:RDF>
      <cc:Work
         rdf:about="">
        <dc:format>image/svg+xml</dc:format>
        <dc:type
           rdf:resource="http://purl.org/dc/dcmitype/StillImage" />
        <dc:title></dc:title>
      </cc:Work>
    </rdf:RDF>
  </metadata>
  <g
     inkscape:label="Camada 1"
     inkscape:groupmode="layer"
     id="layer1"
     transform="translate(1.6131141e-7,-275.83334)">
    <g
       id="g892"
       transform="matrix(0.86830683,0,0,0.86770555,68.386888,180.2312)">
      <g
         aria-label="moz://a"
         style="font-style:normal;font-weight:normal;font-size:10.58333302px;line-height:1.25;font-family:sans-serif;letter-spacing:0px;word-spacing:0px;fill:#000000;fill-opacity:1;stroke:none;stroke-width:0.26458332"
         id="text12">
        <path
           d="m -78.758897,122.13725 v -11.95916 h 36.565416 v 11.95916 z m 30.606999,-9.53558 h -1.344083 l -2.053167,7.28133 h 1.3335 z m -2.76225,0 h -1.344083 l -2.06375,7.28133 h 1.344083 z m 7.545917,7.16492 -0.02117,-0.71967 q -0.0635,0.0318 -0.179917,0.0318 -0.328083,0 -0.328083,-0.37042 v -2.06375 q 0,-0.81491 -0.5715,-1.21708 -0.5715,-0.41275 -1.322917,-0.41275 -0.582083,0 -1.005416,0.0953 -0.423334,0.0952 -1.04775,0.33867 l -0.179917,1.10066 1.0795,0.127 0.15875,-0.53975 q 0.169333,-0.0952 0.338667,-0.11641 0.179916,-0.0212 0.402166,-0.0212 0.5715,0 0.66675,0.34925 0.09525,0.34925 0.09525,0.71967 v 0.15875 q -0.179916,-0.0318 -0.381,-0.0318 -0.1905,-0.0106 -0.381,-0.0106 -0.836083,0 -1.534583,0.28575 -0.687917,0.27517 -0.687917,1.15359 0,0.75141 0.465667,1.05833 0.47625,0.30692 0.994833,0.30692 0.582084,0 0.9525,-0.28575 0.370417,-0.29634 0.5715,-0.65617 0.116417,0.94192 1.058334,0.94192 0.4445,0 0.85725,-0.22225 z m -22.19325,-4.75192 q -1.280583,0 -1.926166,0.75142 -0.635,0.75141 -0.635,1.79916 0,1.15359 0.687916,1.78859 0.687917,0.635 1.799167,0.635 1.143,0 1.883833,-0.66675 0.751417,-0.67734 0.751417,-1.80975 0,-1.00542 -0.645583,-1.74625 -0.635,-0.75142 -1.915584,-0.75142 z m -3.14325,3.84175 h -0.645583 v -2.18017 q 0,-0.85725 -0.508,-1.25941 -0.497417,-0.40217 -1.121833,-0.40217 -0.5715,0 -0.973667,0.28575 -0.402166,0.27517 -0.592666,0.75142 -0.169334,-0.52917 -0.60325,-0.78317 -0.423334,-0.254 -0.9525,-0.254 -0.98425,0 -1.449917,0.81492 v -0.71967 h -2.00025 v 1.03717 h 0.635 v 2.70933 h -0.635 v 1.02658 h 2.899833 v -1.02658 h -0.899583 v -1.67217 q 0,-0.49741 0.211667,-0.81491 0.22225,-0.3175 0.709083,-0.3175 0.814917,0 0.814917,1.15358 v 2.67758 h 2.000249 v -1.02658 h -0.634999 v -1.67217 q 0,-0.49741 0.211666,-0.81491 0.211667,-0.3175 0.6985,-0.3175 0.836083,0 0.836083,1.15358 v 2.67758 h 2.00025 z m 13.483167,-3.7465 h -1.418167 v 1.7145 h 1.418167 z m -2.423584,3.10092 -1.0795,-0.0953 -0.22225,0.74083 h -1.545166 l 2.645833,-3.03742 -0.105833,-0.70908 h -4.201583 l -0.169334,1.67217 1.005417,0.10583 0.211667,-0.75142 h 1.481666 l -2.624666,3.02684 0.137583,0.71966 h 4.180416 z m -7.958666,0.73025 q -0.550333,0 -0.836083,-0.42334 -0.28575,-0.42333 -0.28575,-1.03716 0,-0.66675 0.306916,-1.03717 0.3175,-0.381 0.836084,-0.381 0.486833,0 0.8255,0.34925 0.338666,0.33867 0.338666,1.04775 0,0.68792 -0.328083,1.09008 -0.3175,0.39159 -0.85725,0.39159 z m 19.293416,0.0847 q -0.296333,0 -0.433917,-0.15875 -0.137583,-0.16933 -0.137583,-0.39158 0,-0.40217 0.275167,-0.52917 0.275166,-0.13758 0.645583,-0.13758 0.169333,0 0.338667,0.0212 0.169333,0.0212 0.338666,0.0423 -0.02117,0.59267 -0.34925,0.87842 -0.3175,0.27516 -0.677333,0.27516 z m -8.911166,-0.85725 h -1.418167 v 1.7145 h 1.418167 z"
           style="font-style:normal;font-variant:normal;font-weight:bold;font-stretch:normal;line-height:1.25;font-family:'Zilla Slab Highlight';-inkscape-font-specification:'Zilla Slab Highlight Bold';stroke-width:0.26458332"
           id="path894" />
      </g>
      <g
         aria-label="brasil"
         style="font-style:normal;font-weight:normal;font-size:10.58333302px;line-height:1.25;font-family:sans-serif;letter-spacing:0px;word-spacing:0px;fill:#000000;fill-opacity:1;stroke:none;stroke-width:0.26458332"
         id="text12-0">
        <path
           d="m -78.758897,134.57192 v -11.95916 h 5.831417 v 11.95916 z m 5.344583,-4.73075 q 0,-1.12183 -0.5715,-1.72508 -0.5715,-0.60325 -1.449916,-0.60325 -0.677334,0 -1.0795,0.3175 -0.391584,0.3175 -0.60325,0.75142 v -3.54542 h -1.55575 v 0.60325 h 0.804333 v 5.30225 q 0,0.34925 -0.04233,0.70908 -0.04233,0.35984 -0.09525,0.66675 h 0.740833 q 0.01058,-0.0423 0.05292,-0.39158 0.04233,-0.34925 0.04233,-0.39158 0.47625,0.889 1.651,0.889 0.751417,0 1.217083,-0.381 0.465667,-0.39159 0.677334,-0.98425 0.211666,-0.59267 0.211666,-1.21709 z m -0.783166,0.0741 q 0,0.73025 -0.34925,1.30175 -0.338667,0.5715 -1.121834,0.5715 -0.613833,0 -1.037166,-0.41275 -0.41275,-0.41275 -0.41275,-1.00542 v -0.70908 q 0.01058,-0.51859 0.41275,-1.016 0.402166,-0.49742 1.0795,-0.49742 0.60325,0 1.016,0.4445 0.41275,0.4445 0.41275,1.32292 z"
           style="font-style:normal;font-variant:normal;font-weight:normal;font-stretch:normal;line-height:4.23333311px;font-family:'Zilla Slab Highlight';-inkscape-font-specification:'Zilla Slab Highlight';fill:#000000;fill-opacity:1;stroke-width:0.26458332"
           id="path897" />
        <path
           d="m -73.177842,134.57192 v -11.95916 h 4.656666 v 11.95916 z m 3.1115,-7.0485 q -0.402167,0 -0.719667,0.27517 -0.306917,0.26458 -0.4445,0.65617 v -0.84667 h -1.545167 v 0.60325 h 0.846667 v 3.50308 h -0.8255 v 0.60325 h 2.656417 v -0.60325 h -1.090084 v -2.31775 q 0,-0.55033 0.275167,-0.889 0.275167,-0.34925 0.687917,-0.34925 0.179916,0 0.359833,0.0635 l 0.179917,0.80434 0.60325,-0.0741 -0.179917,-1.18533 q -0.296333,-0.24342 -0.804333,-0.24342 z"
           style="font-style:normal;font-variant:normal;font-weight:normal;font-stretch:normal;line-height:4.23333311px;font-family:'Zilla Slab Highlight';-inkscape-font-specification:'Zilla Slab Highlight';fill:#000000;fill-opacity:1;stroke-width:0.26458332"
           id="path899" />
        <path
           d="m -68.77501,134.57192 v -11.95916 h 5.323416 v 11.95916 z m 0.963083,-6.604 -0.169333,1.09009 0.613833,0.0741 0.179917,-0.81492 q 0.391583,-0.1905 0.910166,-0.1905 0.635,0 0.846667,0.3175 0.22225,0.3175 0.22225,0.8255 v 0.42334 q -0.1905,-0.0212 -0.41275,-0.0317 -0.211667,-0.0106 -0.423333,-0.0106 -0.79375,0 -1.502834,0.28575 -0.6985,0.27517 -0.6985,1.16417 0,0.75142 0.47625,1.03717 0.486834,0.28575 0.9525,0.28575 0.5715,0 0.973667,-0.29634 0.41275,-0.29633 0.635,-0.67733 v 0.0212 q 0.02117,0.9525 0.85725,0.9525 0.328083,0 0.613833,-0.15875 l -0.01058,-0.48684 q -0.137583,0.0635 -0.3175,0.0635 -0.402167,0 -0.402167,-0.508 v -2.24366 q 0,-1.57692 -1.68275,-1.57692 -0.465666,0 -0.878416,0.10583 -0.41275,0.10584 -0.783167,0.34925 z m 2.6035,2.58234 q -0.04233,0.58208 -0.47625,0.92075 -0.423333,0.33866 -0.910167,0.33866 -0.306916,0 -0.592666,-0.16933 -0.28575,-0.16933 -0.28575,-0.62442 0,-0.55033 0.423333,-0.70908 0.433917,-0.16933 0.963083,-0.16933 0.232834,0 0.455084,0.0212 0.22225,0.0212 0.423333,0.0317 z"
           style="font-style:normal;font-variant:normal;font-weight:normal;font-stretch:normal;line-height:4.23333311px;font-family:'Zilla Slab Highlight';-inkscape-font-specification:'Zilla Slab Highlight';fill:#000000;fill-opacity:1;stroke-width:0.26458332"
           id="path901" />
        <path
           d="m -63.71072,134.57192 v -11.95916 h 4.836583 v 11.95916 z m 4.328583,-3.6195 q 0,-0.56091 -0.296333,-0.8255 -0.296334,-0.27516 -0.73025,-0.381 -0.433917,-0.10583 -0.867834,-0.16933 -0.433916,-0.0741 -0.73025,-0.22225 -0.296333,-0.15875 -0.296333,-0.52917 0,-0.35983 0.28575,-0.52916 0.28575,-0.16934 0.73025,-0.16934 0.518583,0 0.963083,0.23284 l 0.116417,0.762 0.613833,-0.0741 -0.116416,-1.10066 q -0.296334,-0.17992 -0.73025,-0.30692 -0.423334,-0.127 -0.910167,-0.127 -0.645583,0 -1.195917,0.30692 -0.550333,0.30691 -0.550333,1.05833 0,0.55033 0.296333,0.81492 0.296334,0.254 0.740834,0.35983 0.4445,0.10583 0.878416,0.17992 0.4445,0.0741 0.740834,0.23283 0.296333,0.15875 0.296333,0.55033 0,0.40217 -0.391583,0.60325 -0.381,0.1905 -0.878417,0.1905 -0.560917,0 -1.04775,-0.23283 l 0.03175,-0.62442 -0.592667,-0.0635 -0.148166,1.06892 q 0.306916,0.20108 0.79375,0.33867 0.497416,0.127 0.994833,0.127 0.846667,0 1.418167,-0.39159 0.582083,-0.39158 0.582083,-1.0795 z"
           style="font-style:normal;font-variant:normal;font-weight:normal;font-stretch:normal;line-height:4.23333311px;font-family:'Zilla Slab Highlight';-inkscape-font-specification:'Zilla Slab Highlight';fill:#000000;fill-opacity:1;stroke-width:0.26458332"
           id="path903" />
        <path
           d="m -59.121854,134.57192 v -11.95916 h 3.185583 v 11.95916 z m 1.217083,-9.144 v 0.96309 h 0.804334 v -0.96309 z m -0.751416,6.88975 h 2.391833 v -0.60325 h -0.8255 v -4.10633 h -1.5875 v 0.60325 h 0.846667 v 3.50308 h -0.8255 z"
           style="font-style:normal;font-variant:normal;font-weight:normal;font-stretch:normal;line-height:4.23333311px;font-family:'Zilla Slab Highlight';-inkscape-font-specification:'Zilla Slab Highlight';fill:#000000;fill-opacity:1;stroke-width:0.26458332"
           id="path905" />
        <path
           d="m -56.186631,134.57192 v -11.95916 h 3.026833 v 11.95916 z m 0.3175,-2.25425 h 2.391833 v -0.60325 h -0.8255 v -6.67808 h -1.576917 v 0.60325 h 0.836084 v 6.07483 h -0.8255 z"
           style="font-style:normal;font-variant:normal;font-weight:normal;font-stretch:normal;line-height:4.23333311px;font-family:'Zilla Slab Highlight';-inkscape-font-specification:'Zilla Slab Highlight';fill:#000000;fill-opacity:1;stroke-width:0.26458332"
           id="path907" />
      </g>
    </g>
  </g>
</svg>
